PathFileType	4	(X/Y/Z)	Run_200 01
DataRate	CameraRate	NumFrames	NumMarkers	Units	OrigDataRate	OrigDataStartFrame	OrigNumFrames
120	120	7	42	mm	120	243	128
Frame#	Time	LASI			RASI			LPSI			RPSI			RTH1			RTH2			RTH3			LTH1			LTH2			LTH3			RTB1			RTB2			RTB3			LTB1			LTB2			LTB3			RCAL			RTOE			RMT5			LCAL			LTOE			LMT5			LACR			RACR			CLAV			C7			RUA1			RUA2			RUA3			RLEL			LUA1			LUA2			LUA3			LLEL			RFAsuperior			RFAradius			RFAulna			LFAsuperior			LFAradius			LFAulna			LMEL			RMEL			
		X1	Y1	Z1	X2	Y2	Z2	X3	Y3	Z3	X4	Y4	Z4	X5	Y5	Z5	X6	Y6	Z6	X7	Y7	Z7	X8	Y8	Z8	X9	Y9	Z9	X10	Y10	Z10	X11	Y11	Z11	X12	Y12	Z12	X13	Y13	Z13	X14	Y14	Z14	X15	Y15	Z15	X16	Y16	Z16	X17	Y17	Z17	X18	Y18	Z18	X19	Y19	Z19	X20	Y20	Z20	X21	Y21	Z21	X22	Y22	Z22	X23	Y23	Z23	X24	Y24	Z24	X25	Y25	Z25	X26	Y26	Z26	X27	Y27	Z27	X28	Y28	Z28	X29	Y29	Z29	X30	Y30	Z30	X31	Y31	Z31	X32	Y32	Z32	X33	Y33	Z33	X34	Y34	Z34	X35	Y35	Z35	X36	Y36	Z36	X37	Y37	Z37	X38	Y38	Z38	X39	Y39	Z39	X40	Y40	Z40	X41	Y41	Z41	X42	Y42	Z42	

240	2.158333	1079.920046	980.333665	-430.228319	1073.437893	975.860328	-190.69297	909.3921340000001	1006.816206	-368.270623	904.923411	1002.614673	-268.375972	1036.147631	805.930978	-147.673282	1127.663033	675.447259	-177.243373	1084.351045	576.652324	-192.953459	1049.729875	812.283317	-491.191341	1143.112831	727.903563	-474.460876	1097.956362	591.560862	-444.839403	1031.793332	386.920069	-245.129534	953.918321	412.283144	-188.651175	860.059583	327.740825	-243.838508	1153.904261	364.083004	-371.325982	1084.317952	281.77683	-414.700105	1071.370381	188.825543	-345.129738	683.38802	379.040025	-268.679046	757.225972	181.683409	-276.118663	724.107246	187.058969	-173.189172	917.449212	90.08594100000001	-334.373562	1123.690173	72.477763	-293.774938	1117.268814	42.585082	-401.346777	1052.015131	1444.888325	-518.788633	1071.637075	1451.881302	-150.550775	1132.847757	1401.415359	-314.358557	1021.066755	1488.517372	-342.940286	1038.342654	1371.196606	-101.64691	1027.217563	1282.671883	-112.8147	943.910905	1298.054149	-91.112928	901.798225	1195.913953	-63.356118	1000.351874	1380.579608	-568.565779	927.876973	1351.120346	-534.970331	955.1654590000001	1283.406589	-581.882166	850.450186	1219.087948	-600.330054	979.239661	1137.462539	-58.582028	1086.660984	996.993873	-104.621916	1027.393317	961.341357	-99.222487	921.000937	1176.202888	-600.14086	1076.268614	1083.440967	-524.301833	1033.988637	1030.565747	-537.8771860000001	828.796395	1225.409987	-528.9621059999999	878.424065	1195.170427	-129.878945	
241	2.166667	1078.372242	977.05436	-429.888554	1071.920582	970.0274439999999	-190.580291	907.717987	1002.992085	-367.899504	903.91257	997.968914	-269.171027	1037.713121	800.9857950000001	-147.680603	1134.800795	673.765663	-175.657926	1095.044224	574.177136	-190.50531	1044.662014	808.225516	-491.736251	1136.684033	723.241046	-475.687413	1092.027881	587.093267	-444.057028	1045.547276	387.173605	-243.200126	967.077379	411.907711	-187.201078	873.541205	326.936249	-242.40483	1144.900213	358.603822	-370.681335	1072.533113	277.846726	-414.205194	1057.030426	185.94608	-344.254364	696.36668	377.292306	-269.850688	772.071446	180.485313	-271.979782	739.042943	188.542396	-168.991169	900.780061	90.222579	-333.70084	1106.936888	71.941412	-293.551778	1100.420934	42.670501	-401.298865	1053.022688	1438.383567	-520.008994	1068.100527	1446.739114	-150.887954	1132.447784	1396.501806	-313.664324	1020.561396	1483.659212	-343.957127	1033.965155	1366.034143	-102.559194	1022.709897	1277.947681	-113.159016	939.240575	1292.524614	-93.812934	896.340958	1190.62304	-67.17128700000001	1003.687045	1370.324231	-569.234875	930.665516	1339.624034	-538.018582	961.085153	1272.463692	-583.039723	858.527634	1205.863403	-603.77996	970.656296	1128.747055	-59.251424	1072.101862	982.409573	-101.01023	1010.710954	949.998845	-96.858304	930.5450530000001	1164.394751	-600.951307	1084.819701	1074.217832	-522.264288	1043.576873	1020.649233	-536.8545350000001	834.407596	1211.535356	-532.855949	874.102894	1189.925948	-132.953703	
242	2.175	1076.842293	974.8082429999999	-429.065329	1070.415564	964.755932	-190.834353	906.023014	1000.125541	-367.051401	903.161021	994.611728	-269.664217	1039.570773	797.051719	-147.444795	1141.939402	673.4264030000001	-174.380412	1105.814421	573.144589	-188.118168	1038.670679	805.065424	-491.867184	1131.033149	720.430719	-476.295865	1086.608167	584.302563	-445.073273	1059.539709	388.090881	-241.256171	980.390252	411.913709	-185.838605	887.571434	325.839197	-240.994191	1135.719934	354.140615	-371.666157	1060.802453	275.639291	-415.17104	1043.041459	184.278825	-344.995849	709.823128	374.141477	-270.891704	788.222552	178.325399	-267.963602	755.1445200000001	188.762432	-165.060255	884.3606109999999	90.906432	-334.021165	1090.242465	71.487099	-294.282777	1083.763261	42.274712	-401.386528	1054.148031	1432.538078	-521.172287	1064.644215	1442.584777	-151.235545	1131.951444	1392.461672	-312.955279	1019.972872	1479.574158	-344.951602	1029.511799	1362.096961	-103.608455	1018.414045	1274.093964	-113.560295	934.788411	1287.959515	-96.829643	891.232429	1185.991297	-71.190483	1007.342671	1361.35259	-569.617613	934.119131	1328.892485	-540.336636	967.489527	1262.711436	-584.0779	867.499543	1193.233471	-607.151391	962.351734	1121.045592	-60.366063	1056.806235	968.686021	-97.587583	993.5284810000001	939.72014	-94.675206	941.266808	1153.797992	-601.21806	1094.15913	1066.350534	-519.5275349999999	1054.193952	1012.071041	-535.51883	841.1135839999999	1197.989105	-536.888158	870.651146	1185.165221	-136.488053	
243	2.183333	1075.430941	973.311569	-427.988399	1069.101322	960.575753	-191.265522	904.4402250000001	997.965673	-365.909474	902.456915	992.3623710000001	-269.238797	1041.396962	794.320958	-147.187832	1148.90056	674.50537	-173.366821	1116.398258	573.5916549999999	-186.024741	1032.762412	802.784015	-491.668759	1126.850321	718.56925	-476.459303	1081.601557	582.4083429999999	-447.47733	1073.606882	389.317266	-239.372089	993.771984	412.314381	-184.581696	902.24249	324.4486	-239.662469	1126.284749	350.829964	-374.064592	1049.40747	274.746309	-416.929767	1029.248203	183.580887	-346.719165	723.697569	369.588561	-271.736633	805.71359	175.268884	-264.289328	772.435056	187.586985	-161.637519	868.1286679999999	91.86515900000001	-334.87183	1073.62003	71.057424	-295.575464	1067.187758	41.640795	-401.674332	1055.40107	1427.6574	-522.215042	1061.433617	1439.435214	-151.496004	1131.380991	1389.323053	-312.265277	1019.333596	1476.378062	-345.878719	1025.186893	1359.162914	-104.721531	1014.403726	1271.125471	-113.938084	930.535986	1284.401654	-100.378924	886.4093789999999	1182.325254	-75.318263	1011.148189	1354.068006	-569.847429	938.175961	1319.312548	-541.798522	974.21457	1254.497259	-584.974277	877.2587109999999	1181.682226	-610.312599	954.47808	1114.706803	-61.930448	1040.93732	956.319527	-94.439724	975.941948	930.973603	-92.79033200000001	952.726669	1144.84983	-601.0631519999999	1104.101653	1060.453485	-516.099559	1065.773904	1005.347085	-533.746966	848.884012	1185.405848	-540.883439	868.221644	1181.104192	-140.489968	
244	2.191667	1074.153598	972.350686	-426.980976	1068.119884	957.917997	-191.808058	903.067441	996.439808	-364.740945	901.614706	991.071139	-267.946516	1042.815601	792.908002	-147.126651	1155.522936	676.9515	-172.528193	1126.526573	575.5017360000001	-184.312441	1027.932369	801.411432	-491.444636	1123.967816	717.001213	-476.399101	1076.737259	580.817902	-450.564152	1087.620388	390.632802	-237.647088	1007.141885	413.047947	-183.461525	917.730745	322.739682	-238.444383	1116.385435	348.56063	-376.867341	1038.046449	274.413638	-418.66719	1015.25799	183.37173	-348.44975	737.897028	363.633916	-272.374547	824.618985	171.436962	-261.124082	790.973572	185.016935	-158.80818	851.922789	92.881516	-335.774421	1057.015958	70.72105000000001	-296.840833	1050.547398	41.045884	-402.124056	1056.773841	1424.084605	-523.03342	1058.552936	1437.247817	-151.649604	1130.765093	1387.120652	-311.588062	1018.689157	1474.184888	-346.672224	1021.193028	1357.038114	-105.802653	1010.708118	1269.048452	-114.354144	926.472611	1281.920533	-104.482052	881.738519	1179.91869	-79.458956	1014.947988	1348.66049	-570.092283	942.648313	1311.259283	-542.567454	981.067542	1248.113117	-585.7081020000001	887.5380290000001	1171.746995	-613.100809	947.002697	1110.007723	-63.855923	1024.739727	945.827868	-91.63461	958.185428	924.199583	-91.373672	964.3451240000001	1137.856217	-600.718845	1114.428185	1057.096387	-512.072612	1078.14797	1000.968573	-531.36519	857.371684	1174.46703	-544.579254	866.517981	1178.057695	-144.767016	
245	2.2	1072.964715	971.80391	-426.334791	1067.512791	956.912094	-192.512054	901.945144	995.6437519999999	-363.816498	900.615481	990.652283	-266.509717	1043.696939	792.801498	-147.273662	1161.684576	680.6170530000001	-171.7773	1135.982334	578.785681	-182.959342	1024.694293	800.854602	-491.536654	1121.510507	715.426274	-476.242317	1071.609607	579.355338	-453.691389	1101.490512	392.066805	-236.181317	1020.413623	414.003274	-182.535646	934.12599	320.695214	-237.384125	1105.650051	346.919117	-378.927889	1026.025203	274.008413	-419.888649	1000.746508	183.225383	-349.49889	752.343102	356.282803	-272.84912	845.000228	166.979727	-258.546431	810.774917	181.154377	-156.537156	835.617658	93.882914	-336.474544	1040.388591	70.56914500000001	-297.687866	1033.76676	40.641124	-402.621119	1058.254223	1422.085744	-523.55484	1056.0075	1435.986144	-151.715273	1130.137425	1385.918576	-310.891108	1018.079756	1473.063275	-347.286616	1017.644866	1355.674408	-106.766598	1007.281146	1267.846288	-115.023791	922.6002989999999	1280.634949	-108.881026	877.058147	1178.984154	-83.536772	1018.643767	1345.189662	-570.426755	947.265805	1305.090358	-543.028881	987.863037	1243.763507	-586.286962	897.950857	1163.898779	-615.395636	939.71754	1107.119805	-65.98155300000001	1008.512423	937.65981	-89.20014999999999	940.615624	919.712522	-90.599872	975.637357	1132.992918	-600.411531	1124.930499	1056.709489	-507.62918	1091.069922	999.362919	-528.3056319999999	866.055295	1165.672723	-547.7875790000001	864.9094229999999	1176.346	-149.048235	
246	2.208333	1071.850542	971.628751	-426.219009	1067.212099	957.404704	-193.391416	901.079461	995.725085	-363.325241	899.604951	991.075441	-265.763935	1044.270388	793.905846	-147.431161	1167.315758	685.317596	-171.075724	1144.630828	583.276105	-181.91929	1022.866825	800.879756	-492.083526	1118.422219	713.773038	-475.995506	1065.623349	578.151605	-456.293803	1115.143204	393.891902	-235.064063	1033.475743	415.072137	-181.897592	951.2349390000001	318.346048	-236.575039	1093.701077	345.398587	-379.758899	1012.779174	273.310355	-420.520328	985.651548	182.986997	-349.805789	767.0204649999999	347.563774	-273.244255	866.85381	162.059997	-256.586552	831.772666	176.153546	-154.752437	819.206325	94.976866	-336.979667	1023.752282	70.619747	-298.099037	1016.873746	40.435503	-403.066197	1059.83482	1421.782787	-523.785808	1053.744357	1435.664549	-151.705111	1129.53272	1385.79236	-310.137945	1017.539888	1473.017186	-347.719919	1014.513291	1355.17868	-107.564657	1004.002454	1267.542173	-116.103442	918.891932	1280.666815	-113.143051	872.232793	1179.614041	-87.50298600000001	1022.188204	1343.676126	-570.789162	951.765821	1301.088516	-543.580575	994.45722	1241.522265	-586.743751	908.104866	1158.414944	-617.16512	932.341235	1106.09454	-68.119963	992.577253	932.122066	-87.10236399999999	923.656881	917.644554	-90.594196	986.356215	1130.340004	-600.221908	1135.41111	1059.499026	-503.012007	1104.247084	1000.820821	-524.737158	874.465008	1159.225902	-550.4747589999999	862.828545	1176.202258	-153.133571	
